# xmcd
#
# Track frame offsets:
#	150
#	14734
#	28405
#	42915
#	56841
#	72704
#	84056
#	99909
#	112424
#	127119
#	143149
#	158703
#
# Disc length: 2293 seconds
#
# Revision: 1
# Processed by: cddbd v1.4PL0 Copyright (c) Steve Scherf et al.
# Submitted via: audiograbber 1.80
#
DISCID=b008f30c
DTITLE=Die Mooskirchner - Oh Carina
DYEAR=1900
DGENRE=
TTITLE0=Oh Carina
TTITLE1=Mein Altes Auto
TTITLE2=Bayrisch-Steirisch
TTITLE3=Bloss Heim
TTITLE4='s Feuer Is Aus
TTITLE5=Der Freimüller Peter
TTITLE6=Pass Auf, Auf Mei Herz
TTITLE7=A Guater Hintern
TTITLE8=Wenn Ein Jodler Von Den Bergen Klingt
TTITLE9=Kinderzeit
TTITLE10=Ohne Moos Nix Los
TTITLE11=Supermann
EXTD=
EXTT0=
EXTT1=
EXTT2=
EXTT3=
EXTT4=
EXTT5=
EXTT6=
EXTT7=
EXTT8=
EXTT9=
EXTT10=
EXTT11=
PLAYORDER=
